inDegrees=no
num_controls=7
num_derivatives=13
num_iterations=70
num_multipliers=7
num_parameters=0
num_slacks=7
num_states=26
objective=0.438012
objective_accelerations=0.061799
objective_balance=0.004528
objective_effort=0.055581
objective_height=0.309211
objective_ligament=0.006894
solver_duration=990.225774
status=Solve_Succeeded
success=true
DataType=double
version=3
OpenSimVersion=4.5
endheader
time	/jointset/ground_pelvis/pelvis_tilt/value	/jointset/ground_pelvis/pelvis_tx/value	/jointset/ground_pelvis/pelvis_ty/value	/jointset/hip_l/hip_flexion_l/value	/jointset/hip_l/hip_adduction_l/value	/jointset/hip_l/hip_rotation_l/value	/jointset/back/lumbar_extension/value	/jointset/patellofemoral_l/patellar_flexion_l/value	/jointset/knee_l/knee_flexion_l/value	/jointset/knee_l/knee_adduction_l/value	/jointset/knee_l/knee_rotation_l/value	/jointset/ankle_l/ankle_angle_l/value	/jointset/subtalar_l/subtalar_angle_l/value	/jointset/ground_pelvis/pelvis_tilt/speed	/jointset/ground_pelvis/pelvis_tx/speed	/jointset/ground_pelvis/pelvis_ty/speed	/jointset/hip_l/hip_flexion_l/speed	/jointset/hip_l/hip_adduction_l/speed	/jointset/hip_l/hip_rotation_l/speed	/jointset/back/lumbar_extension/speed	/jointset/patellofemoral_l/patellar_flexion_l/speed	/jointset/knee_l/knee_flexion_l/speed	/jointset/knee_l/knee_adduction_l/speed	/jointset/knee_l/knee_rotation_l/speed	/jointset/ankle_l/ankle_angle_l/speed	/jointset/subtalar_l/subtalar_angle_l/speed	/forceset/tau_hip_flexion_l	/forceset/tau_hip_adduction_l	/forceset/tau_hip_rotation_l	/forceset/tau_knee_flexion_l	/forceset/tau_ankle_angle_l	/forceset/tau_subtalar_angle_l	/forceset/tau_lumbar_extension	lambda_cid13_p0	lambda_cid13_p1	lambda_cid13_p2	lambda_cid13_p3	lambda_cid13_p4	lambda_cid13_p5	lambda_cid14_p0	/jointset/ground_pelvis/pelvis_tilt/accel	/jointset/ground_pelvis/pelvis_tx/accel	/jointset/ground_pelvis/pelvis_ty/accel	/jointset/hip_l/hip_flexion_l/accel	/jointset/hip_l/hip_adduction_l/accel	/jointset/hip_l/hip_rotation_l/accel	/jointset/back/lumbar_extension/accel	/jointset/patellofemoral_l/patellar_flexion_l/accel	/jointset/knee_l/knee_flexion_l/accel	/jointset/knee_l/knee_adduction_l/accel	/jointset/knee_l/knee_rotation_l/accel	/jointset/ankle_l/ankle_angle_l/accel	/jointset/subtalar_l/subtalar_angle_l/accel	gamma_cid13_p0	gamma_cid13_p1	gamma_cid13_p2	gamma_cid13_p3	gamma_cid13_p4	gamma_cid13_p5	gamma_cid14_p0
0	-0.03616291024021098	0.05638990959424684	0.9203532722021645	0.3085816938045678	-0.2954533783486347	-0.2974677018300531	-0.3879492264334186	0.2499269421184945	0.2499269421184919	-0.1745325025092674	-0.1704718379703186	-0.0008036623358878681	0.0005783815695568816	0	0	0	0	0	0	0	0	0	0	0	0	0	0.1065783158675522	-0.02732148455493541	-0.01820459166242777	-0.2317488966734007	0.1490775169982471	-0.03905142675061059	-0.04457037708502277	5.543134137270325	13.05056263647572	0.8220173048382331	37.79177079267677	-577.2226815827939	-50.07431293112082	-23.06017776924717	-2.211541482392986	-3.437293442820955	-1.560987076500785	16.56266744970813	-0.6610224987625591	5.048507927106241	-9.875169178744093	16.05176850735687	16.05176850735677	3.750799588770037	-0.3897493255799266	2.967832854228572	0.2784926901006988	5.849301236132785e-08	5.897223845608115e-07	-1.451015707368321e-07	1.726736996682426e-08	3.149200965978319e-07	2.133985724565698e-07	8.155396017257104e-08
0.01	-0.03626569063002421	0.05622003393473636	0.9202767156215481	0.309390665630467	-0.29548825266628	-0.2972138794201202	-0.3884436165099853	0.2507170498642401	0.2507170498642352	-0.1743531502177509	-0.1704869668504983	-0.000658069332825688	0.0005894341583334894	-0.02033475770381394	-0.03379737724032838	-0.01527783947387987	0.1609427946619775	-0.007049813612374398	0.05054915046906516	-0.0983146495017905	0.1574390333927783	0.1574390333927774	0.03549528887346123	-0.003062878527335806	0.0290547105876193	0.002113163888906273	0.09737271861802284	-0.03286759066763936	-0.01688205451468537	-0.2229201506495024	0.1368006559952359	-0.02792816976990215	-0.03649965166855932	1.927356637975626	8.86006375666706	1.481835200311914	38.08392855999196	-579.8992284418741	-57.94764442780763	-23.06946452824672	-1.911254198149516	-3.324293212080141	-1.506097901410495	15.73234552157279	-0.7382814425637494	5.025871459536667	-9.725107964079511	15.50257708100704	15.50257708100692	3.392705526661456	-0.2701681562787163	2.864721812095311	0.1630484497492983	-1.066801704883969e-08	5.259091195568718e-07	1.718753309456194e-07	5.885754628338393e-08	1.121681910008418e-07	-2.427841020961342e-08	4.36013124814033e-08
0.02	-0.03656518085363145	0.05571751783333403	0.9200483975424774	0.3117835174124107	-0.2955958892500686	-0.2964610149349514	-0.3899042521072063	0.2530640692090689	0.2530640692090692	-0.1738300826394946	-0.1705338467239444	-0.0002238428936744677	0.0006186824282919004	-0.03934196675858622	-0.06652808837836838	-0.03035229969086106	0.3167759912091582	-0.01455245322830889	0.09980841504733191	-0.1932491041308918	0.3113823198163081	0.3113823198163063	0.06874305734801471	-0.006350198653405074	0.05772668721790594	0.00363913623636015	0.0881671213685165	-0.03841369678033181	-0.01555951736694823	-0.2140914046255739	0.1245237949922421	-0.01680491278917562	-0.02842892625209573	-1.557572741588359	4.653091131587696	2.136922926242284	38.22131467845938	-580.5938490205715	-65.656699107251	-23.09686238851606	-1.946031752584597	-3.223960222363343	-1.520311225121049	15.54074782674878	-0.7515876994745759	4.790530748946558	-9.199130204206222	15.35261911350717	15.35261911350708	3.301295508988488	-0.4346376453266279	2.891286062761967	0.1610543818101952	-7.982904645900723e-08	4.620958545529321e-07	4.888522326280709e-07	1.004477225999436e-07	-9.058371459614833e-08	-2.619553928757966e-07	5.648664790235562e-09
0.03	-0.03705017589013525	0.05489387559489256	0.9196698787582382	0.3157096016739154	-0.2957787655942004	-0.2952239924248097	-0.3922942636800411	0.2569305619100262	0.2569305619100398	-0.1729830282186911	-0.1706145312969749	0.0004950501154684709	0.0006623424905694823	-0.05758766244636943	-0.09793853078001477	-0.04535465947573766	0.4675680411629248	-0.02191473047902283	0.1472796400413732	-0.283949075866475	0.4610785180217741	0.4610785180217735	0.1005200267264837	-0.009723658250362982	0.08597874584538052	0.005182101416107584	0.0805726036116821	-0.03062464906948053	-0.01497774552015884	-0.2107481360468124	0.1254441828168093	-0.02095486883572793	-0.02100712513929172	-1.403126032523256	6.385360753404244	1.909885256133193	36.14156407658584	-581.8911624629417	-60.84746082130282	-23.14101644007509	-1.753444094639636	-3.060291712162194	-1.490697638930429	14.71749461694089	-0.7124867345929579	4.677899493816398	-8.884810472706361	14.65246384447716	14.6524638444774	3.093860092376828	-0.2791726117451394	2.781203523635207	0.164170881904882	-1.191481092601148e-07	3.35376155578295e-07	5.81468594623741e-07	1.364182335349817e-07	-2.79873359279214e-07	-3.556407386591515e-07	-1.445319426267257e-08
0.04	-0.0377155490070716	0.05376398783981506	0.9191412365193983	0.3211174186424051	-0.2960320525101822	-0.2935217614408893	-0.3955671509331263	0.2622688853271351	0.262268885327135	-0.1718226116160739	-0.170727044964926	0.00149427126306551	0.0007240828638141023	-0.07541758284471831	-0.127777191705574	-0.06037699061099527	0.6131225326067047	-0.02863456759865853	0.192850109802755	-0.3698242401809295	0.6057484630436735	0.6057484630436746	0.1314154937089797	-0.01271601764191389	0.1137923149086535	0.007255198429768388	0.07297808585482518	-0.02283560135864469	-0.01439597367349969	-0.2074048674680523	0.1263645706413661	-0.02510482488229791	-0.01358532402649216	-1.13190231499829	8.106700233378545	1.67371703363264	33.90835910767102	-581.4358827735487	-55.87836007198791	-23.19964395715295	-1.862876694697664	-2.909603927145965	-1.524305495197252	14.49323612475145	-0.6230996732589276	4.410379702414645	-8.234168719980429	14.34736847679384	14.34736847679384	3.12499502979391	-0.3584176042452379	2.803588149921584	0.2670807485928495	-1.578518737806232e-07	2.073594167279733e-07	6.694589661104054e-07	1.7227287508071e-07	-4.688854315723019e-07	-4.463571847129637e-07	-3.418699581788463e-08
0.05	-0.03855744443466134	0.05234383157622063	0.9184617289276235	0.327955105281265	-0.2963493332302423	-0.2913744272149992	-0.399673479228112	0.2690295096235501	0.2690295096235494	-0.1703578804549135	-0.1708685491985876	0.002769790075700328	0.0008093289260572004	-0.0928421093858291	-0.1559648330229305	-0.07556629668997812	0.7534669761976043	-0.0347321459696949	0.236320827474406	-0.4506105931518827	0.7455481490132037	0.7455481490132055	0.1612983155425568	-0.01548598334067683	0.1412595613076338	0.00987097766763251	0.06408163855492068	-0.02151085310181391	-0.01354793497109396	-0.2034559967241301	0.1243215621406547	-0.02254302118204565	-0.005341336640600125	-1.52696059986236	7.086738930817318	1.809532202273744	31.67020711826241	-580.6449075732179	-56.50986698927667	-23.2698452120462	-1.664333161225833	-2.729925291324565	-1.522603810609607	13.66286256673756	-0.5898045433851816	4.270939450652722	-7.876244735920189	13.67203856999392	13.67203856999401	2.885167180439845	-0.2213503094918697	2.710513661299606	0.2702616826597705	-1.801247407360312e-07	1.066368730998412e-07	6.977792498263997e-07	1.936920263165945e-07	-5.7739413257665e-07	-4.85209959473834e-07	-4.644205520832717e-08
